<svg xmlns="http://www.w3.org/2000/svg" viewBox="0 0 64 64">
  <rect width="64" height="64" rx="16" fill="#16624f"/>
  <circle cx="32" cy="25" r="13" fill="#fff"/>
  <path d="M13 55c1.4-10.7 9.2-17 19-17s17.6 6.3 19 17v1H13z" fill="#fff"/>
  <g>
    <rect x="17" y="19" width="6" height="5" fill="#4f8878"/>
    <rect x="23" y="19" width="6" height="5" fill="#c7dcd6"/>
    <rect x="29" y="19" width="6" height="5" fill="#6e9f91"/>
    <rect x="35" y="19" width="6" height="5" fill="#e3efeb"/>
    <rect x="41" y="19" width="6" height="5" fill="#7eaa9e"/>
    <rect x="17" y="24" width="6" height="5" fill="#b3d0c7"/>
    <rect x="23" y="24" width="6" height="5" fill="#5f9485"/>
    <rect x="29" y="24" width="6" height="5" fill="#d9e8e3"/>
    <rect x="35" y="24" width="6" height="5" fill="#4a8373"/>
    <rect x="41" y="24" width="6" height="5" fill="#c3d9d2"/>
    <rect x="17" y="29" width="6" height="5" fill="#6e9f91"/>
    <rect x="23" y="29" width="6" height="5" fill="#dbe9e5"/>
    <rect x="29" y="29" width="6" height="5" fill="#538b7b"/>
    <rect x="35" y="29" width="6" height="5" fill="#b7d2ca"/>
    <rect x="41" y="29" width="6" height="5" fill="#699b8d"/>
  </g>
</svg>
